<svg width="101" height="101" viewBox="0 0 101 101" fill="none"
  xmlns="http://www.w3.org/2000/svg">
  <path d="M50.5 101C78.3904 101 101 78.3904 101 50.5C101 22.6096 78.3904 0 50.5 0C22.6096 0 0 22.6096 0 50.5C0 78.3904 22.6096 101 50.5 101Z" fill="#D6453B"/>
  <path d="M66.954 50.4081C66.954 60.3571 60.141 67.4381 50.079 67.4381C45.4772 67.4033 41.0757 65.5508 37.8339 62.2844C34.5922 59.018 32.7731 54.6026 32.7731 50.0006C32.7731 45.3986 34.5922 40.9832 37.8339 37.7169C41.0757 34.4505 45.4772 32.598 50.079 32.5631C54.4201 32.5133 58.6113 34.149 61.771 37.1261L57.025 41.6891C50.817 35.7001 39.271 40.2001 39.271 50.0001C39.2476 52.8925 40.3723 55.676 42.3984 57.7403C44.4246 59.8045 47.1867 60.9808 50.079 61.0111C56.979 61.0111 59.571 56.0611 59.979 53.4951H50.079V47.4951H66.679C66.8636 48.4551 66.9557 49.4306 66.954 50.4081Z" fill="white"/>
</svg>
