<svg width="139" height="66" viewBox="0 0 139 66" fill="none"
  xmlns="http://www.w3.org/2000/svg">
  <mask id="mask0_8_117" style="mask-type:alpha" maskUnits="userSpaceOnUse" x="103" y="0" width="36" height="36">
    <path d="M137.36 12.8026C137.63 12.8026 137.846 12.9127 138.008 13.133C138.17 13.2982 138.224 13.5184 138.17 13.7937L137.198 21.8057C137.144 22.081 137.009 22.3288 136.793 22.549C136.631 22.7142 136.414 22.7968 136.144 22.7968H125.369C125.153 22.7968 124.991 22.9345 124.883 23.2098L123.587 34.3605C123.533 34.6358 123.398 34.8836 123.182 35.1038C123.02 35.269 122.804 35.3516 122.534 35.3516H115C114.405 35.3516 114.108 35.0212 114.108 34.3605L115.486 23.2098C115.486 22.9345 115.378 22.7968 115.162 22.7968H104.387C104.117 22.7968 103.9 22.7142 103.738 22.549C103.576 22.3288 103.522 22.081 103.576 21.8057L104.549 13.7937C104.549 13.5184 104.657 13.2982 104.873 13.133C105.089 12.9127 105.332 12.8026 105.602 12.8026H116.377C116.485 12.8026 116.566 12.775 116.62 12.72C116.728 12.6098 116.782 12.4997 116.782 12.3896L118.159 0.991169C118.213 0.715845 118.321 0.495585 118.483 0.33039C118.699 0.11013 118.942 0 119.212 0H126.747C127.017 0 127.233 0.11013 127.395 0.33039C127.557 0.495585 127.611 0.715845 127.557 0.991169L126.18 12.3896C126.18 12.6649 126.315 12.8026 126.585 12.8026H137.36Z" fill="black"/>
  </mask>
  <g mask="url(#mask0_8_117)">
    <path d="M176.504 -19.2926C160.924 -25.5403 131.322 -12.4801 119.309 6.51025C112.869 16.7114 115.743 21.9002 106.049 32.1013C96.9084 41.7376 86.6604 45.2321 88.3568 47.4206C90.2956 49.8914 107.018 49.7856 119.309 43.5025C138.905 33.4779 127.687 17.7703 146.037 4.53356C161.963 -6.93828 185.263 -5.66755 183.982 -12.7977C183.497 -15.6216 179.377 -18.1277 176.504 -19.2926Z" fill="#51E678"/>
    <path d="M120.624 110.957C129.937 100.685 123.429 87.5899 135.754 61.8223C147.214 37.9256 161.859 30.3366 162.62 20.4531C163.694 6.19275 134.404 5.62799 123.636 20.2766C115.743 31.0072 124.71 40.4318 115.119 66.164C106.568 89.143 93.0306 98.9205 93.4461 108.875C93.9308 119.993 111.276 121.229 120.624 110.957Z" fill="#58CBFB"/>
    <path d="M132.88 -18.5159C109.926 -10.115 100.855 23.3475 100.267 25.5713C95.9734 42.1613 98.3623 52.7507 89.4299 59.6338C84.202 63.6578 78.1086 64.1167 78.1778 64.4696C78.3163 64.9991 94.3462 65.5992 104.663 56.2805C116.746 45.3734 108.576 32.1014 119.828 10.7461C129.28 -7.18523 144.513 -15.9391 142.297 -19.2571C140.912 -21.3397 134.369 -19.0806 132.88 -18.5159Z" fill="#292929"/>
  </g>
  <path d="M28.5995 38.7374C28.5995 38.7374 28.2879 39.3728 27.5608 39.4081C26.8338 39.4081 25.6566 38.4903 25.4489 38.3138C25.2412 38.1374 23.4755 36.2666 22.1252 35.7018C20.775 35.137 19.0439 35.0664 17.5551 35.9489C17.5551 35.9489 14.4046 37.5726 12.535 43.2909C10.6654 49.0091 10.6308 53.6332 12.6389 55.2922C14.6469 56.9512 17.0012 55.6804 18.5938 55.0098C20.1864 54.3391 22.8176 52.7154 23.7178 52.6448C24.618 52.5742 25.1719 52.786 24.8603 54.3744C24.5487 55.9628 22.2637 62.0694 21.6751 62.9518C21.6751 62.9518 19.7363 64.5402 17.1051 65.3168C14.4392 66.0933 12.0503 66.0227 9.90373 65.5639C7.75718 65.105 5.29904 63.6225 3.08324 61.1869C0.867451 58.7514 -0.448176 53.7744 0.140394 47.8443C0.728964 41.9142 4.12189 35.3488 8.03415 31.3248C11.9464 27.3009 15.4432 25.9596 18.8708 25.8184C22.3329 25.6772 26.6607 27.5833 29.1881 31.0072C29.1881 31.0072 29.3958 31.3248 29.4304 31.5719C29.3958 31.5719 29.6381 37.3961 28.5995 38.7374Z" fill="#58CBFB"/>
  <path d="M46.1526 26.9125L36.4932 65.8462H30.469C30.469 65.8462 27.6992 65.952 26.9376 64.9284C26.1759 63.9048 26.349 62.987 26.7991 60.7985C27.2492 58.6101 33.6196 32.7367 33.6196 32.7367C33.6196 32.7367 34.5197 29.1363 35.3507 28.2185C36.1816 27.3008 37.2548 26.8772 39.159 26.8772H46.1526V26.9125Z" fill="#58CBFB"/>
  <path d="M44.387 9.54575C44.387 9.54575 47.4683 9.40456 49.0609 11.1342C50.6535 12.8638 50.0649 14.8757 49.4417 15.8641C48.8186 16.8171 47.1567 19.4998 42.0327 19.4998C36.9087 19.4998 36.8394 16.1112 36.8394 15.5464C36.8394 15.5464 36.8048 13.8168 38.2935 12.2284C39.7823 10.6753 41.548 9.54575 44.387 9.54575Z" fill="#58CBFB"/>
  <path d="M53.458 26.9127H48.5763L46.499 35.4195H51.3807L43.7292 65.8816H51.5191C51.5191 65.8816 54.8428 66.0228 55.9854 61.54C57.1625 57.0571 62.4596 35.4548 62.4596 35.4548H66.8566C66.8566 35.4548 68.1376 35.4548 68.5877 35.1018C69.0724 34.7488 69.5225 34.6076 69.9033 33.1604C70.2841 31.6779 71.0112 28.8188 71.0112 28.8188C71.0112 28.8188 71.2536 27.9716 70.7689 27.5127C70.7689 27.5127 70.2149 26.948 69.1416 26.948H64.8139L68.3453 13.1465C68.3453 13.1465 68.7262 11.911 68.2068 10.9933C67.6529 10.0755 66.6835 9.68726 65.0563 9.68726C63.3944 9.68726 61.4556 10.4285 60.2438 10.8874C59.0667 11.3816 57.7511 12.264 57.1279 13.1112L53.458 26.9127Z" fill="#58CBFB"/>
  <path d="M61.2825 54.5509V61.2222C61.2825 61.2222 61.7325 61.2928 62.702 60.6928C63.6714 60.128 69.0031 55.751 69.7648 55.3628C70.5265 55.0098 72.3961 53.9156 74.0233 55.6452C75.6505 57.3748 77.2777 59.8809 78.1433 60.8693C79.0434 61.8929 79.1473 61.9635 79.7012 62.5636C80.2206 63.1636 81.5708 64.5049 83.7174 65.105C85.8639 65.7051 89.88 66.3404 94.9002 64.7167C99.9204 63.093 101.34 62.3518 102.725 60.4104C104.144 58.469 103.625 55.0451 103.348 54.5509C103.071 54.092 103.002 53.6685 103.002 53.6685C103.002 53.6685 102.24 53.7038 101.478 54.092C100.717 54.5156 99.6434 55.0098 98.7086 55.4687C97.7738 55.9628 94.3809 56.8806 94.0693 56.9512C93.7577 57.0218 91.992 57.1277 91.4726 56.8453C90.9533 56.5982 90.2955 56.1393 89.88 55.504C89.4646 54.9039 88.4606 53.1743 88.1836 52.433C87.872 51.6918 87.1795 50.2799 86.9372 48.8326C86.6948 47.3501 86.0024 45.8676 85.5869 45.5499C85.1715 45.2323 83.3712 44.2086 81.3977 43.6438C79.4589 43.0791 78.2125 43.4321 77.7624 43.6438C77.347 43.8556 76.1006 44.3498 75.4081 44.7734C74.7157 45.197 70.4919 47.8443 68.0337 49.5033C65.5756 51.1623 63.2905 52.7154 62.5635 53.2802C61.871 53.9508 61.6287 54.092 61.2825 54.5509Z" fill="#58CBFB"/>
  <path d="M85.8985 24.2297C85.8985 24.2297 81.7785 25.6769 79.5973 27.4065C77.4162 29.1361 77.2777 29.242 77.0699 30.901C76.8622 32.56 77.4162 34.5367 79.4242 35.1014C81.4323 35.6662 83.9597 35.4191 85.3099 35.172C86.6602 34.925 89.7761 33.7601 91.0571 32.6659C92.3381 31.607 93.0306 29.9832 93.2037 29.7009C93.4114 29.4185 93.6191 28.536 94.0692 27.6183C94.5193 26.7005 95.0386 25.8534 95.0386 24.8297C95.0386 23.8061 94.8309 22.6413 92.3728 22.6766C89.9492 22.6766 87.4565 23.6296 85.8985 24.2297Z" fill="#58CBFB"/>
  <path d="M61.2825 54.5509V61.2222C61.2825 61.2222 61.7325 61.2928 62.702 60.6928C63.6714 60.128 69.0031 55.751 69.7648 55.3628C70.5265 55.0098 72.3961 53.9156 74.0233 55.6452C75.6505 57.3748 77.2777 59.8809 78.1433 60.8693C79.0434 61.8929 79.1473 61.9635 79.7012 62.5636C80.2206 63.1636 81.5708 64.5049 83.7174 65.105C85.8639 65.7051 89.88 66.3404 94.9002 64.7167C99.9204 63.093 101.34 62.3518 102.725 60.4104C104.144 58.469 103.625 55.0451 103.348 54.5509C103.071 54.092 103.002 53.6685 103.002 53.6685C103.002 53.6685 102.24 53.7038 101.478 54.092C100.717 54.5156 99.6434 55.0098 98.7086 55.4687C97.7738 55.9628 94.3809 56.8806 94.0693 56.9512C93.7577 57.0218 91.992 57.1277 91.4726 56.8453C90.9533 56.5982 90.2955 56.1393 89.88 55.504C89.4646 54.9039 88.4606 53.1743 88.1836 52.433C87.872 51.6918 87.1795 50.2799 86.9372 48.8326C86.6948 47.3501 86.0024 45.8676 85.5869 45.5499C85.1715 45.2323 83.3712 44.2086 81.3977 43.6438C79.4589 43.0791 78.2125 43.4321 77.7624 43.6438C77.347 43.8556 76.1006 44.3498 75.4081 44.7734C74.7157 45.197 70.4919 47.8443 68.0337 49.5033C65.5756 51.1623 63.2905 52.7154 62.5635 53.2802C61.871 53.9508 61.6287 54.092 61.2825 54.5509Z" fill="#58CBFB"/>
  <path d="M85.8985 24.2297C85.8985 24.2297 81.7785 25.6769 79.5973 27.4065C77.4162 29.1361 77.2777 29.242 77.0699 30.901C76.8622 32.56 77.4162 34.5367 79.4242 35.1014C81.4323 35.6662 83.9597 35.4191 85.3099 35.172C86.6602 34.925 89.7761 33.7601 91.0571 32.6659C92.3381 31.607 93.0306 29.9832 93.2037 29.7009C93.4114 29.4185 93.6191 28.536 94.0692 27.6183C94.5193 26.7005 95.0386 25.8534 95.0386 24.8297C95.0386 23.8061 94.8309 22.6413 92.3728 22.6766C89.9492 22.6766 87.4565 23.6296 85.8985 24.2297Z" fill="#58CBFB"/>
  <path d="M61.2825 54.5509V61.2222C61.2825 61.2222 61.7325 61.2928 62.702 60.6928C63.6714 60.128 69.0031 55.751 69.7648 55.3628C70.5265 55.0098 72.3961 53.9156 74.0233 55.6452C75.6505 57.3748 77.2777 59.8809 78.1433 60.8693C79.0434 61.8929 79.1473 61.9635 79.7012 62.5636C80.2206 63.1636 81.5708 64.5049 83.7174 65.105C85.8639 65.7051 89.88 66.3404 94.9002 64.7167C99.9204 63.093 101.34 62.3518 102.725 60.4104C104.144 58.469 103.625 55.0451 103.348 54.5509C103.071 54.092 103.002 53.6685 103.002 53.6685C103.002 53.6685 102.24 53.7038 101.478 54.092C100.717 54.5156 99.6434 55.0098 98.7086 55.4687C97.7738 55.9628 94.3809 56.8806 94.0693 56.9512C93.7577 57.0218 91.992 57.1277 91.4726 56.8453C90.9533 56.5982 90.2955 56.1393 89.88 55.504C89.4646 54.9039 88.4606 53.1743 88.1836 52.433C87.872 51.6918 87.1795 50.2799 86.9372 48.8326C86.6948 47.3501 86.0024 45.8676 85.5869 45.5499C85.1715 45.2323 83.3712 44.2086 81.3977 43.6438C79.4589 43.0791 78.2125 43.4321 77.7624 43.6438C77.347 43.8556 76.1006 44.3498 75.4081 44.7734C74.7157 45.197 70.4919 47.8443 68.0337 49.5033C65.5756 51.1623 63.2905 52.7154 62.5635 53.2802C61.871 53.9508 61.6287 54.092 61.2825 54.5509Z" fill="#58CBFB"/>
  <path d="M85.8985 24.2297C85.8985 24.2297 81.7785 25.6769 79.5973 27.4065C77.4162 29.1361 77.2777 29.242 77.0699 30.901C76.8622 32.56 77.4162 34.5367 79.4242 35.1014C81.4323 35.6662 83.9597 35.4191 85.3099 35.172C86.6602 34.925 89.7761 33.7601 91.0571 32.6659C92.3381 31.607 93.0306 29.9832 93.2037 29.7009C93.4114 29.4185 93.6191 28.536 94.0692 27.6183C94.5193 26.7005 95.0386 25.8534 95.0386 24.8297C95.0386 23.8061 94.8309 22.6413 92.3728 22.6766C89.9146 22.6766 87.4565 23.6296 85.8985 24.2297Z" fill="#58CBFB"/>
</svg>
